<?xml version="1.0" encoding="iso-8859-1"?>
<!-- Generator: Adobe Illustrator 12.0.1, SVG Export Plug-In . SVG Version: 6.00 Build 51448)  -->
<!DOCTYPE svg PUBLIC "-//W3C//DTD SVG 1.1//EN" "http://www.w3.org/Graphics/SVG/1.1/DTD/svg11.dtd" [
	<!ENTITY ns_svg "http://www.w3.org/2000/svg">
	<!ENTITY ns_xlink "http://www.w3.org/1999/xlink">
]>
<svg  version="1.1" id="Layer_1" xmlns="&ns_svg;" xmlns:xlink="&ns_xlink;"
	 viewBox="0 0 86.654 31.863" style="overflow:visible;enable-background:new 0 0 86.654 31.863;" xml:space="preserve">
<g>
	<path style="fill:#4281C3;" d="M82.23,29.353c0-1.214,0.993-2.207,2.219-2.207c1.219,0,2.205,0.993,2.205,2.207
		c0,1.226-0.986,2.218-2.205,2.218C83.224,31.571,82.23,30.579,82.23,29.353z M86.305,29.353c0-1.075-0.783-1.914-1.855-1.914
		c-1.08,0-1.867,0.839-1.867,1.914c0,1.085,0.787,1.926,1.867,1.926C85.521,31.279,86.305,30.438,86.305,29.353z M85.551,30.59
		h-0.361l-0.705-1.137H83.93v1.137h-0.305v-2.469h1.08c0.654,0,0.875,0.246,0.875,0.654c0,0.484-0.338,0.665-0.777,0.677
		L85.551,30.59z M84.391,29.213c0.352,0,0.863,0.058,0.863-0.445c0-0.384-0.315-0.43-0.619-0.43H83.93v0.875H84.391z"/>
	<g>
		<rect style="fill:#4281C3;" width="15.529" height="2.219"/>
		<rect y="4.236" style="fill:#4281C3;" width="15.529" height="2.219"/>
		<rect x="4.436" y="8.467" style="fill:#4281C3;" width="6.659" height="2.228"/>
		<rect x="4.436" y="12.705" style="fill:#4281C3;" width="6.659" height="2.211"/>
		<rect x="4.436" y="16.942" style="fill:#4281C3;" width="6.659" height="2.212"/>
		<rect x="4.436" y="21.175" style="fill:#4281C3;" width="6.659" height="2.22"/>
		<rect y="25.412" style="fill:#4281C3;" width="15.529" height="2.22"/>
		<rect y="29.642" style="fill:#4281C3;" width="15.529" height="2.221"/>
		<path style="fill:#4281C3;" d="M17.74,4.236h23.934c0.205,0.366,0.669,1.748,0.728,2.219H17.74V4.236z"/>
		<rect x="22.185" y="8.467" style="fill:#4281C3;" width="6.646" height="2.228"/>
		<path style="fill:#4281C3;" d="M35.486,8.467h7.095c0.023,0.467-0.195,1.78-0.371,2.228h-6.725V8.467z"/>
		<path style="fill:#4281C3;" d="M22.185,16.942h17.093c0.557,0.383,1.579,1.645,1.99,2.21H22.185V16.942z"/>
		<rect x="22.185" y="21.175" style="fill:#4281C3;" width="6.646" height="2.22"/>
		<path style="fill:#4281C3;" d="M35.486,21.175h6.753c0.147,0.313,0.4,1.788,0.384,2.22h-7.138V21.175z"/>
		<path style="fill:#4281C3;" d="M17.74,25.412h24.604c-0.034,0.509-0.507,1.897-0.728,2.22H17.74V25.412z"/>
		<path style="fill:#4281C3;" d="M17.74,29.642h22.246c-1.972,1.652-3.713,2.221-6.767,2.221h-2.202H17.74V29.642z"/>
		<polygon style="fill:#4281C3;" points="48.797,12.705 61.406,12.705 62.108,14.69 62.814,12.705 75.414,12.705 75.414,14.916 
			68.762,14.916 68.762,13.125 68.128,14.916 56.084,14.916 55.451,13.125 55.451,14.916 48.797,14.916 		"/>
		<rect x="48.797" y="16.942" style="fill:#4281C3;" width="6.654" height="2.212"/>
		<rect x="48.797" y="21.175" style="fill:#4281C3;" width="6.654" height="2.22"/>
		<rect x="44.364" y="25.412" style="fill:#4281C3;" width="11.087" height="2.212"/>
		<rect x="44.364" y="29.642" style="fill:#4281C3;" width="11.087" height="2.221"/>
		<polygon style="fill:#4281C3;" points="67.336,0 79.852,0 79.852,2.219 66.543,2.219 		"/>
		<polygon style="fill:#4281C3;" points="65.83,4.236 79.852,4.236 79.852,6.455 65.037,6.455 		"/>
		<polygon style="fill:#4281C3;" points="64.328,8.467 75.414,8.467 75.414,10.695 63.535,10.695 		"/>
		<rect x="68.762" y="16.942" style="fill:#4281C3;" width="6.652" height="2.212"/>
		<rect x="68.762" y="21.175" style="fill:#4281C3;" width="6.652" height="2.22"/>
		<rect x="68.762" y="25.412" style="fill:#4281C3;" width="11.09" height="2.212"/>
		<rect x="68.762" y="29.642" style="fill:#4281C3;" width="11.09" height="2.221"/>
		<polygon style="fill:#4281C3;" points="56.791,16.942 67.426,16.942 66.664,19.155 57.562,19.155 		"/>
		<polygon style="fill:#4281C3;" points="58.264,21.175 65.958,21.175 65.181,23.395 59.041,23.395 		"/>
		<polygon style="fill:#4281C3;" points="59.749,25.412 64.477,25.412 63.707,27.624 60.522,27.624 		"/>
		<polygon style="fill:#4281C3;" points="61.234,29.642 63.001,29.642 62.228,31.863 62.003,31.863 		"/>
		<path style="fill:#4281C3;" d="M22.185,14.92h17.093c0.557-0.385,1.579-1.646,1.99-2.211H22.185V14.92z"/>
		<polygon style="fill:#4281C3;" points="56.886,0 44.371,0 44.371,2.219 57.678,2.219 		"/>
		<polygon style="fill:#4281C3;" points="58.394,4.236 44.371,4.236 44.371,6.455 59.186,6.455 		"/>
		<polygon style="fill:#4281C3;" points="59.894,8.467 48.807,8.467 48.807,10.695 60.686,10.695 		"/>
		<path style="fill:#4281C3;" d="M17.74,2.219h22.246C38.014,0.567,36.272,0,33.219,0h-2.202H17.74V2.219z"/>
	</g>
</g>
</svg>
